<?xml version="1.0" standalone="no"?>
<!DOCTYPE svg PUBLIC "-//W3C//DTD SVG 20010904//EN"
 "http://www.w3.org/TR/2001/REC-SVG-20010904/DTD/svg10.dtd">
<svg version="1.0" xmlns="http://www.w3.org/2000/svg"
 width="40.000000pt" height="40.000000pt" viewBox="0 0 40.000000 40.000000"
 preserveAspectRatio="xMidYMid meet">

<g transform="translate(0.000000,40.000000) scale(0.100000,-0.100000)"
fill="#000000" stroke="none">
<path d="M74 394 c-12 -3 -32 -16 -45 -30 -23 -24 -24 -32 -24 -157 0 -131 8
-184 24 -159 4 7 17 14 29 15 16 1 19 5 11 18 -5 10 -9 61 -9 114 0 89 2 98
25 120 22 23 32 25 120 25 88 0 98 -2 120 -25 23 -22 25 -32 25 -120 0 -88 -2
-98 -25 -120 -13 -14 -36 -25 -52 -26 -15 0 -37 -4 -48 -9 -18 -8 -18 -9 -2
-9 10 -1 25 -8 33 -16 9 -9 34 -15 59 -15 35 0 48 5 64 26 19 24 21 40 21 174
0 145 0 147 -26 171 -24 23 -33 24 -152 26 -70 0 -137 -1 -148 -3z"/>
<path d="M113 310 c-14 -6 -24 -21 -29 -45 -10 -53 0 -153 17 -170 9 -9 43
-15 102 -17 83 -3 90 -1 108 21 15 18 19 39 19 92 0 78 -13 115 -44 123 -32 9
-148 6 -173 -4z m187 -35 c0 -8 -7 -15 -15 -15 -8 0 -15 7 -15 15 0 8 7 15 15
15 8 0 15 -7 15 -15z m-41 -31 c12 -15 21 -37 21 -49 0 -37 -37 -75 -73 -75
-68 0 -101 77 -52 125 33 34 77 33 104 -1z"/>
<path d="M184 240 c-45 -17 -29 -90 20 -90 31 0 48 22 44 56 -3 31 -32 45 -64
34z"/>
</g>
</svg>
